<svg width="77" height="65" viewBox="0 0 77 65" fill="none" xmlns="http://www.w3.org/2000/svg">
<path d="M54.2 24.4L69.4 22.2C74.3333 22.2 76.8 23.3333 76.8 25.6C76.8 27.8667 75.8 29.6 73.8 30.8C71.9333 32 69.8 32.9333 67.4 33.6C65 34.1333 62.6667 34.5333 60.4 34.8C58.1333 34.9333 56.6667 35.0667 56 35.2C61.0667 46.2667 64.2 53.5333 65.4 57C65.2667 59 63.3333 60.8 59.6 62.4C54.5333 64.1333 51.5333 64.9333 50.6 64.8H50.4C46.2667 64.8 43.9333 63.9333 43.4 62.2C42.3333 59 40.1333 53.9333 36.8 47C34 49.1333 31.1333 51.2 28.2 53.2C25.4 55.2 22.6 57.6667 19.8 60.6C17 63.5333 13.8667 65 10.4 65C6.93333 65 4.33333 64.3333 2.6 63C0.866668 61.5333 2.02656e-06 59.8 2.02656e-06 57.8C2.02656e-06 55.6667 0.933335 53.6 2.8 51.6C4.8 49.4667 7.13333 47.3333 9.8 45.2C12.4667 43.0667 15.2 41.0667 18 39.2C20.9333 37.2 23.3333 35.4667 25.2 34C22.8 32.2667 19.7333 30.8 16 29.6C12.2667 28.2667 9.8 27.2 8.6 26.4C7.53333 25.4667 7 24.2667 7 22.8C7 19.8667 8.53333 17.4667 11.6 15.6C14.2667 13.7333 17.2 12.8667 20.4 13C23.6 13 28.7333 14.6 35.8 17.8C39.4 9.53333 42.0667 4.86666 43.8 3.79999C45.6667 2.59999 47.4 1.79999 49 1.39999C50.6 0.866655 52.2 0.533322 53.8 0.399991C55.5333 0.133327 57.5333 -4.29153e-06 59.8 -4.29153e-06C62.2 -4.29153e-06 63.4 0.599996 63.4 1.8C63.4 2.73333 61.8667 5.73332 58.8 10.8C55.7333 15.8667 54.2 20.4 54.2 24.4Z" fill="black"/>
</svg>
